<svg id="Layer_1" viewBox="0 0 48 48" xmlns="http://www.w3.org/2000/svg" data-name="Layer 1"><path d="m32.5 9c-.276 0-.5.224-.5.5v.5c0 .552-.448 1-1 1s-1-.448-1-1v-.5c0-.276-.224-.5-.5-.5h-25.5c-2.209 0-4 1.791-4 4v22c0 2.209 1.791 4 4 4h25.5c.276 0 .5-.224.5-.5v-.5c0-.552.448-1 1-1s1 .448 1 1v.5c0 .276.224.5.5.5h11.5c2.209 0 4-1.791 4-4v-22c0-2.209-1.791-4-4-4zm-9.884 19.409c.196.386.122.854-.185 1.16l-.113.113c-.421.421-1.114.383-1.487-.081l-3.834-4.77-4.587 4.586.283 1.98c.045.312-.06.626-.283.849l-.608.608c-.23.23-.615.183-.782-.096l-1.277-2.129c-.338-.563-.809-1.034-1.372-1.372l-2.129-1.277c-.279-.167-.326-.552-.096-.782l.608-.608c.223-.223.537-.327.849-.283l1.98.283 4.587-4.587-4.77-3.834c-.464-.373-.501-1.066-.081-1.487l.113-.113c.306-.306.774-.38 1.16-.185l6.099 3.097 2.835-2.835c1.054-1.054 2.484-1.646 3.974-1.646.271 0 .501.23.501.501 0 1.491-.592 2.92-1.646 3.974l-2.835 2.835 3.097 6.099zm9.384 4.791c0 .552-.448 1-1 1s-1-.448-1-1v-1c0-.552.448-1 1-1s1 .448 1 1zm0-5.8c0 .552-.448 1-1 1s-1-.448-1-1v-1c0-.552.448-1 1-1s1 .448 1 1zm0-5.8c0 .552-.448 1-1 1s-1-.448-1-1v-1c0-.552.448-1 1-1s1 .448 1 1zm0-5.8c0 .552-.448 1-1 1s-1-.448-1-1v-1c0-.552.448-1 1-1s1 .448 1 1zm11 18.2h-6c-.552 0-1-.448-1-1s.448-1 1-1h6c.552 0 1 .448 1 1s-.448 1-1 1zm0-5h-6c-.552 0-1-.448-1-1s.448-1 1-1h6c.552 0 1 .448 1 1s-.448 1-1 1zm0-4h-6c-.552 0-1-.448-1-1s.448-1 1-1h6c.552 0 1 .448 1 1s-.448 1-1 1zm0-5h-6c-.552 0-1-.448-1-1s.448-1 1-1h6c.552 0 1 .448 1 1s-.448 1-1 1zm0-4h-6c-.552 0-1-.448-1-1s.448-1 1-1h6c.552 0 1 .448 1 1s-.448 1-1 1z"/></svg>